<svg width="197" height="128" viewBox="0 0 197 128" fill="none" xmlns="http://www.w3.org/2000/svg">
<path d="M75.3916 0C77.6609 0 88.5976 8.00012 98.9668 16H181C189.836 16.0001 197 23.1635 197 32V112C197 120.836 189.836 128 181 128H16C7.16344 128 3.86579e-07 120.837 0 112V16C0 7.1634 7.14973 -6.00482e-05 15.9863 0C37.1666 0.000143928 72.2399 -1.96505e-08 75.3916 0Z" fill="#E6E6E4"/>
<path d="M0 32C0 23.1634 7.16345 16 16 16H181C189.836 16 197 23.1634 197 32V112C197 120.837 189.836 128 181 128H16C7.16343 128 0 120.837 0 112V32Z" fill="url(#paint0_linear_1118_527)"/>
<path d="M16 16.5H181C189.56 16.5001 196.5 23.4396 196.5 32V112C196.5 120.56 189.56 127.5 181 127.5H16C7.43959 127.5 0.5 120.56 0.5 112V32C0.5 23.4396 7.43959 16.5 16 16.5Z" stroke="#F2F2F0" stroke-opacity="0.5"/>
<defs>
<linearGradient id="paint0_linear_1118_527" x1="98.4999" y1="16" x2="98.4999" y2="128" gradientUnits="userSpaceOnUse">
<stop stop-color="#F2F2F0"/>
<stop offset="1" stop-color="#D9D9D7"/>
</linearGradient>
</defs>
</svg>
